<svg xmlns="http://www.w3.org/2000/svg" viewBox="-4.8 -4.8 409.6 409.6" height="400" width="400"><linearGradient gradientUnits="userSpaceOnUse" y2="34.14213562373095" x2="34.14213562373095" y1="5.857864376269049" x1="5.857864376269051" id="gradient-408777984"><stop stop-color="hsl(29.12,97.37%,64.18%)" offset="0%" /><stop stop-color="hsl(31.62,90.18%,61.68%)" offset="10%" /><stop stop-color="hsl(35,80.08%,57.48%)" offset="25%" /><stop stop-color="hsl(35.33,84.18%,58.35%)" offset="37%" /><stop stop-color="hsl(35.63,88.46%,59.23%)" offset="50%" /><stop stop-color="hsl(34.92,82.03%,54.62%)" offset="5.01%" /><stop stop-color="hsl(24.22,91.87%,61.41%)" offset="83%" /><stop stop-color="hsl(14.06,98.22%,64.73%)" offset="100%" /></linearGradient><linearGradient gradientUnits="userSpaceOnUse" y2="34.14213562373095" x2="34.14213562373095" y1="5.857864376269049" x1="5.857864376269051" id="gradient-3357778686"><stop stop-color="hsl(34.12,6.24%,57.25%)" offset="0%" /><stop stop-color="hsl(4.71,3.93%,35.92%)" offset="50%" /><stop stop-color="hsl(329.71,16.67%,3.76%)" offset="5.01%" /><stop stop-color="hsl(164.71,11.11%,2.82%)" offset="100%" /></linearGradient><radialGradient gradientUnits="userSpaceOnUse" r="20" id="gradient-3679643574"><stop stop-color="hsl(345.19,100%,30.2%)" offset="0%" /><stop stop-color="hsl(345.19,100%,30.2%)" offset="100%" /></radialGradient><linearGradient gradientUnits="userSpaceOnUse" y2="34.14213562373095" x2="34.14213562373095" y1="5.857864376269049" x1="5.857864376269051" id="gradient-2461541998"><stop stop-color="hsl(4.41,14.96%,76.39%)" offset="0%" /><stop stop-color="hsl(335,4.81%,55.18%)" offset="50%" /><stop stop-color="hsl(300,16.54%,20.93%)" offset="5.01%" /><stop stop-color="hsl(135,11.03%,20.84%)" offset="100%" /></linearGradient><linearGradient gradientUnits="userSpaceOnUse" y2="20.485281374238568" x2="20.48528137423857" y1="3.5147186257614287" x1="3.5147186257614305" id="gradient-3261858847"><stop stop-color="hsl(0,0%,99.06%)" offset="0%" /><stop stop-color="hsl(0,0%,96.24%)" offset="10%" /><stop stop-color="hsl(0,0%,91.53%)" offset="25%" /><stop stop-color="hsl(0,0%,93.41%)" offset="37%" /><stop stop-color="hsl(0,0%,95.29%)" offset="50%" /><stop stop-color="hsl(0,0%,91.84%)" offset="5.01%" /><stop stop-color="hsl(0,0%,96.86%)" offset="83%" /><stop stop-color="hsl(0,0%,99.37%)" offset="100%" /></linearGradient><linearGradient gradientUnits="userSpaceOnUse" y2="20.485281374238568" x2="20.48528137423857" y1="3.5147186257614287" x1="3.5147186257614305" id="gradient-2452111228"><stop stop-color="hsl(0,0%,74.9%)" offset="0%" /><stop stop-color="hsl(0,0%,46.67%)" offset="50%" /><stop stop-color="hsl(0,0%,5.49%)" offset="5.01%" /><stop stop-color="hsl(0,0%,3.92%)" offset="100%" /></linearGradient><metadata>{"content":{"iconName":"calendar-clock","shapeName":"circle"},"style":{"iconFillStyle":{"baseColor":"rgb(153,153,153)","gradientDef":"https://colorzilla.com/gradient-editor/#b8e1fc+0,a9d2f3+10,90bae4+25,90bcea+37,90bff0+50,6ba8e5+5.01,a2daf5+83,bdf3fd+100","gradientZoom":1,"options":{"angle":135,"type":"linear"},"strokeWidth":1},"iconScale":1.5,"iconStrokeStyle":{"gradientDef":"https://colorzilla.com/gradient-editor/#aebcbf+0,6e7774+50,0a0e0a+5.01,0a0809+100","baseColor":"hsl(0,0%,50%)","options":{"angle":135,"type":"linear"},"strokeWidth":0,"gradientZoom":1},"shapeInnerFillStyle":{"gradientDef":"FF0000+0,FF0000+100","baseColor":"hsl(345,100%,15%)","options":{"angle":0,"type":"radial"},"strokeWidth":1,"gradientZoom":1},"shapeInnerStrokeStyle":{"baseColor":"rgb(153,96,77)","gradientDef":"https://colorzilla.com/gradient-editor/#aebcbf+0,6e7774+50,0a0e0a+5.01,0a0809+100","gradientZoom":1,"options":{"angle":135,"type":"linear"},"strokeWidth":0.6},"shapeOuterFillStyle":{"gradientDef":"https://colorzilla.com/gradient-editor/#b8e1fc+0,a9d2f3+10,90bae4+25,90bcea+37,90bff0+50,6ba8e5+5.01,a2daf5+83,bdf3fd+100","baseColor":"hsl(30,66.67%,36%)","options":{"angle":135,"type":"linear"},"strokeWidth":1,"gradientZoom":1},"shapeOuterStrokeStyle":{"baseColor":"rgb(102,89,51)","gradientDef":"https://colorzilla.com/gradient-editor/#aebcbf+0,6e7774+50,0a0e0a+5.01,0a0809+100","gradientZoom":1,"options":{"angle":135,"type":"linear"},"strokeWidth":0.6}}}</metadata><svg x="0" y="0" style="overflow: visible;" height="400" width="400" viewBox="0 0 40 40">
	<circle style="fill: url(&quot;#gradient-408777984&quot;); stroke-width: 0.96px; stroke: url(&quot;#gradient-3357778686&quot;); stroke-linecap: round; stroke-linejoin: round;" fill="#9fa0a4" r="18" cy="20" cx="20" />
	<path style="fill: url(&quot;#gradient-3679643574&quot;); stroke-width: 0.96px; stroke: url(&quot;#gradient-2461541998&quot;); stroke-linecap: round; stroke-linejoin: round;" stroke-miterlimit="10" stroke-width="1.001" stroke="#fff" fill="none" d="M20 34.4C12 34.4 5.6 28 5.6 20S12 5.6 20 5.6 34.4 12 34.4 20 28 34.4 20 34.4z" />
</svg><svg x="87.5" y="87.5" style="overflow: visible;" viewBox="0 0 24 24" height="225" width="225" id="mdi-calendar-clock" version="1.1"><path style="fill: url(&quot;#gradient-3261858847&quot;); stroke-width: 0.96px; stroke: url(&quot;#gradient-2452111228&quot;); stroke-linecap: round; stroke-linejoin: round;" d="M 15 13 H 16.5 V 15.82 L 18.94 17.23 L 18.19 18.53 L 15 16.69 V 13 Z M 19 8 H 5 V 19 H 9.67 C 9.24 18.09 9 17.07 9 16 A 7 7 0 0 1 16 9 C 17.07 9 18.09 9.24 19 9.67 V 8 Z M 5 21 C 3.89 21 3 20.1 3 19 V 5 C 3 3.89 3.89 3 5 3 H 6 V 1 H 8 V 3 H 16 V 1 H 18 V 3 H 19 A 2 2 0 0 1 21 5 V 11.1 C 22.24 12.36 23 14.09 23 16 A 7 7 0 0 1 16 23 C 14.09 23 12.36 22.24 11.1 21 H 5 Z M 16 11.15 A 4.85 4.85 0 0 0 11.15 16 C 11.15 18.68 13.32 20.85 16 20.85 A 4.85 4.85 0 0 0 20.85 16 C 20.85 13.32 18.68 11.15 16 11.15 Z" /><path style="fill: url(&quot;#gradient-3261858847&quot;);" d="M 15 13 H 16.5 V 15.82 L 18.94 17.23 L 18.19 18.53 L 15 16.69 V 13 Z M 19 8 H 5 V 19 H 9.67 C 9.24 18.09 9 17.07 9 16 A 7 7 0 0 1 16 9 C 17.07 9 18.09 9.24 19 9.67 V 8 Z M 5 21 C 3.89 21 3 20.1 3 19 V 5 C 3 3.89 3.89 3 5 3 H 6 V 1 H 8 V 3 H 16 V 1 H 18 V 3 H 19 A 2 2 0 0 1 21 5 V 11.1 C 22.24 12.36 23 14.09 23 16 A 7 7 0 0 1 16 23 C 14.09 23 12.36 22.24 11.1 21 H 5 Z M 16 11.15 A 4.85 4.85 0 0 0 11.15 16 C 11.15 18.68 13.32 20.85 16 20.85 A 4.85 4.85 0 0 0 20.85 16 C 20.85 13.32 18.68 11.15 16 11.15 Z" /></svg></svg>