<svg xmlns="http://www.w3.org/2000/svg" xmlns:xlink="http://www.w3.org/1999/xlink" version="1.1" x="0px" y="0px" viewBox="0 0 100 100" style="enable-background:new 0 0 100 100;" xml:space="preserve"><g><path d="M23.2,87.5c0,1.4,1.1,2.5,2.5,2.5l1.8,0l45,0l1.8,0c1.4,0,2.5-1.1,2.5-2.5c0-1.1-0.8-2.1-1.8-2.4l0-4.6l0-61l0-4.6   c1-0.3,1.8-1.2,1.8-2.4c0-1.4-1.1-2.5-2.5-2.5l-1.8,0l-45,0l-1.8,0c-1.4,0-2.5,1.1-2.5,2.5c0,1.1,0.8,2.1,1.8,2.4l0,4.6l0,61l0,4.6   C24,85.4,23.2,86.4,23.2,87.5z M70,85L30,85l0-2.1L70,83L70,85z M70,78L30,78l0-20.5l1.3,7.8c0.1,0.6,0.5,1.2,1,1.6   c0.5,0.4,1.2,0.5,1.9,0.4l0.8-0.1c5.5-1,8.5-1.5,15.1-1.5c6.6,0,9.6,0.5,15.1,1.5l0.8,0.1c0.1,0,0.3,0,0.4,0c0.5,0,1-0.2,1.4-0.5   c0.5-0.4,0.9-1,1-1.6l1.3-7.8L70,78z M41.1,41.8l-0.4-3.6c3-0.4,6.1-0.6,9.3-0.6c3.2,0,6.3,0.2,9.3,0.6l-0.4,3.6   c-0.1,0.7,0.1,1.3,0.5,1.8c0.4,0.5,1,0.8,1.7,0.9c2.1,0.2,4.1,0.4,6,0.7L64.3,62c-4.6-0.8-7.9-1.3-14.2-1.3   c-6.3,0-9.7,0.5-14.2,1.3l-2.9-16.8c1.9-0.3,3.9-0.5,6-0.7c0.7-0.1,1.3-0.4,1.7-0.9C41,43.1,41.1,42.5,41.1,41.8z M70,40.7   c-1.9-0.3-3.9-0.6-5.9-0.9l0.4-3.5c0.1-1.3-0.8-2.5-2-2.7c-3.9-0.7-8.1-1-12.4-1c-4.3,0-8.5,0.4-12.4,1.1c-1.3,0.2-2.2,1.4-2,2.7   l0.4,3.5c-2.1,0.2-4,0.5-5.9,0.9L30,22L70,22L70,40.7z M70,15l0,2.1L30,17l0-2.1L70,15z"></path></g></svg>